<?xml version="1.0" encoding="UTF-8"?>
<svg width="173px" height="22px" viewBox="0 0 173 22" version="1.1" xmlns="http://www.w3.org/2000/svg" xmlns:xlink="http://www.w3.org/1999/xlink">
    <!-- Generator: Sketch 55 (78076) - https://sketchapp.com -->
    <title>编组 3</title>
    <desc>Created with Sketch.</desc>
    <g id="页面1" stroke="none" stroke-width="1" fill="none" fill-rule="evenodd">
        <g id="编组-3" transform="translate(-0.000000, -1.000000)" fill="#5AB6B1">
            <text id="天津防疫管理系统" font-family="PingFangSC-Semibold, PingFang SC" font-size="18" font-weight="500">
                <tspan x="29" y="19">天津防疫管理系统</tspan>
            </text>
            <g id="编组-7" transform="translate(0.000000, 1.000000)">
                <g id="疫苗">
                    <path d="M5.35171556,17.2467651 C9.95049673,20.4155884 15.4999249,22 22,22 L4.85167462e-14,22 L-2.61316908e-07,19.5730896 C-2.61316908e-07,17.8267215 1.41571078,16.4110105 3.16207885,16.4110105 C3.67484716,16.4110105 4.17764554,16.5356667 4.62817022,16.7714221 L2.51151549,18.8936775 C2.35235234,19.0538561 2.35344879,19.3118319 2.51396781,19.4706676 L2.53603873,19.4901715 C2.69770179,19.6470774 2.95609865,19.645992 3.1164222,19.4877335 L3.11723965,19.4877335 L5.35171397,17.2467667 Z" id="形状结合"></path>
                    <polygon id="路径" fill-rule="nonzero" points="20.6428571 5.5750017 16.2922712 1.35714286 10.4642857 7.31716079 14.8148717 11.5357143"></polygon>
                    <path d="M5.85103787,16.2791768 L10.6749899,16.9642857 C11.0018982,16.9596739 11.3135859,16.8260823 11.5415282,16.5928811 L19.2857143,8.67864623 L13.1279598,2.71428571 L5.38444034,10.6278574 C5.1568221,10.8609461 5.031445,11.1743661 5.03582532,11.4993318 L5.85103787,16.2791768 Z" id="路径" fill-rule="nonzero"></path>
                    <path d="M5.85259058,16.2731272 L10.6857294,16.9642857 C11.0132603,16.9596332 11.3255415,16.824862 11.5539179,16.5896016 L15.8928571,12.1268455 L9.7233758,6.10714286 L5.38510445,10.5698989 C5.15705274,10.8050459 5.03143687,11.1212334 5.03582553,11.4490686 L5.85259058,16.2731272 Z" id="路径" fill-rule="nonzero"></path>
                    <path d="M14.6900818,0.929491263 L21.1028233,7.31592852 C21.3068166,7.51714801 21.6310285,7.51318841 21.8302686,7.30704422 L21.8549844,7.27970795 C22.0519253,7.07073732 22.0477545,6.73852124 21.8456325,6.53479446 L15.432891,0.148357203 C15.2288976,-0.052862295 14.9046858,-0.048902699 14.7054457,0.157241486 L14.6807299,0.184577754 C14.483789,0.393548381 14.4879598,0.725764473 14.6900818,0.929491263 L14.6900818,0.929491263 Z" id="路径" fill-rule="nonzero"></path>
                    <path d="M13.31654,14.0702111 C13.3752425,14.1203227 13.4543812,14.1478859 13.5364089,14.1467891 C13.6184365,14.1456923 13.6965746,14.1160263 13.7534975,14.0643688 L13.7695327,14.0509313 C13.82684,13.9995997 13.8583611,13.9303979 13.8571068,13.85867 C13.8558526,13.7869421 13.8219266,13.7186154 13.7628514,13.6688399 L11.3482265,11.6123238 C11.2895241,11.5622122 11.2103853,11.5346491 11.1283576,11.5357458 C11.04633,11.5368426 10.9681919,11.5665086 10.911269,11.6181661 L10.895902,11.6321878 C10.8385947,11.6835194 10.8070736,11.7527212 10.8083278,11.8244491 C10.8095821,11.896177 10.843508,11.9645037 10.9025833,12.0142792 L13.31654,14.0707954 L13.31654,14.0702111 Z M12.1272671,15.1393659 C12.1859696,15.1894774 12.2651084,15.2170406 12.347136,15.2159438 C12.4291637,15.2148471 12.5073017,15.185181 12.5642247,15.1335235 L12.5802598,15.120086 C12.6375671,15.0687544 12.6690882,14.9995527 12.6678339,14.9278247 C12.6665797,14.8560968 12.6326537,14.7877701 12.5735785,14.7379947 L10.1589537,12.6814785 C10.1002794,12.6315472 10.0212853,12.6040978 9.93942183,12.6051941 C9.85755834,12.6062903 9.77956249,12.635842 9.72266424,12.6873209 L9.7066291,12.7013426 C9.64932182,12.7526741 9.61780071,12.8218759 9.61905496,12.8936038 C9.6203092,12.9653317 9.65423515,13.0336585 9.7133104,13.0834339 L12.1279352,15.1399501 L12.1272671,15.1393659 Z M8.52203314,14.1525886 L10.9359898,16.2091048 C10.9946923,16.2592163 11.0738311,16.2867795 11.1558587,16.2856828 C11.2378864,16.284586 11.3160244,16.2549199 11.3729474,16.2032624 L11.3883144,16.1892407 C11.4456217,16.1379092 11.4771428,16.0687074 11.4758885,15.9969795 C11.4746343,15.9252516 11.4407083,15.8569248 11.3816331,15.8071494 L8.96767639,13.7506332 C8.9089739,13.7005217 8.82983512,13.6729585 8.74780748,13.6740552 C8.66577984,13.675152 8.58764177,13.7048181 8.53071883,13.7564756 L8.51535183,13.7704973 C8.3970875,13.8778135 8.40007187,14.0484843 8.52203314,14.1525886 L8.52203314,14.1525886 Z" id="形状" fill-rule="nonzero"></path>
                    <path d="M11.8214286,6.10714286 L5.71428571,12.8928571" id="路径" fill-rule="nonzero"></path>
                </g>
            </g>
        </g>
    </g>
</svg>