<?xml version="1.0" encoding="UTF-8"?>
<svg width="173px" height="22px" viewBox="0 0 173 22" version="1.1" xmlns="http://www.w3.org/2000/svg" xmlns:xlink="http://www.w3.org/1999/xlink">
    <!-- Generator: Sketch 55 (78076) - https://sketchapp.com -->
    <title>编组 3</title>
    <desc>Created with Sketch.</desc>
    <g id="页面1" stroke="none" stroke-width="1" fill="none" fill-rule="evenodd">
        <g id="防疫证明查询/防疫证明信息" transform="translate(-36.000000, -21.000000)">
            <g id="编组-3" transform="translate(35.000000, 20.000000)">
                <text id="天津防疫管理系统" font-family="PingFangSC-Semibold, PingFang SC" font-size="18" font-weight="500" fill="#FFFFFF">
                    <tspan x="30" y="19">天津防疫管理系统</tspan>
                </text>
                <g id="编组-7" transform="translate(0.000000, 1.000000)">
                    <g id="疫苗">
                        <path d="M6,17 C6,17 6,17 6,17 C10.6666667,20.3333333 16.3333333,22 23,22 L1,22 L0.999999739,19.5730896 C0.999999739,17.8267215 2.41571078,16.4110105 4.16207885,16.4110105 C4.82112879,16.4110105 5.463709,16.616935 6,17 Z" id="矩形" fill="#FFFFFF"></path>
                        <polygon id="路径" fill="#FFFFFF" fill-rule="nonzero" points="21.6428571 5.5750017 17.2922712 1.35714286 11.4642857 7.31716079 15.8148717 11.5357143"></polygon>
                        <path d="M4.11723965,19.4877335 L7.27419879,16.3216015 C7.43336195,16.1614229 7.4322655,15.9034471 7.27174646,15.7446114 L7.24967554,15.7251075 C7.08855489,15.5668749 6.82906193,15.5679649 6.66929205,15.7275454 L3.51151549,18.8936775 C3.35235234,19.0538561 3.35344879,19.3118319 3.51396781,19.4706676 L3.53603873,19.4901715 C3.69770179,19.6470774 3.95609865,19.645992 4.1164222,19.4877335 L4.11723965,19.4877335 Z" id="路径" fill="#5AB6B1" fill-rule="nonzero"></path>
                        <path d="M6.85103787,16.2791768 L11.6749899,16.9642857 C12.0018982,16.9596739 12.3135859,16.8260823 12.5415282,16.5928811 L20.2857143,8.67864623 L14.1279598,2.71428571 L6.38444034,10.6278574 C6.1568221,10.8609461 6.031445,11.1743661 6.03582532,11.4993318 L6.85103787,16.2791768 Z" id="路径" fill="#FFFFFF" fill-rule="nonzero"></path>
                        <path d="M6.85259058,16.2731272 L11.6857294,16.9642857 C12.0132603,16.9596332 12.3255415,16.824862 12.5539179,16.5896016 L16.8928571,12.1268455 L10.7233758,6.10714286 L6.38510445,10.5698989 C6.15705274,10.8050459 6.03143687,11.1212334 6.03582553,11.4490686 L6.85259058,16.2731272 Z" id="路径" fill="#FFFFFF" fill-rule="nonzero"></path>
                        <path d="M15.6900818,0.929491263 L22.1028233,7.31592852 C22.3068166,7.51714801 22.6310285,7.51318841 22.8302686,7.30704422 L22.8549844,7.27970795 C23.0519253,7.07073732 23.0477545,6.73852124 22.8456325,6.53479446 L16.432891,0.148357203 C16.2288976,-0.052862295 15.9046858,-0.048902699 15.7054457,0.157241486 L15.6807299,0.184577754 C15.483789,0.393548381 15.4879598,0.725764473 15.6900818,0.929491263 L15.6900818,0.929491263 Z" id="路径" fill="#FFFFFF" fill-rule="nonzero"></path>
                        <path d="M14.31654,14.0702111 C14.3752425,14.1203227 14.4543812,14.1478859 14.5364089,14.1467891 C14.6184365,14.1456923 14.6965746,14.1160263 14.7534975,14.0643688 L14.7695327,14.0509313 C14.82684,13.9995997 14.8583611,13.9303979 14.8571068,13.85867 C14.8558526,13.7869421 14.8219266,13.7186154 14.7628514,13.6688399 L12.3482265,11.6123238 C12.2895241,11.5622122 12.2103853,11.5346491 12.1283576,11.5357458 C12.04633,11.5368426 11.9681919,11.5665086 11.911269,11.6181661 L11.895902,11.6321878 C11.8385947,11.6835194 11.8070736,11.7527212 11.8083278,11.8244491 C11.8095821,11.896177 11.843508,11.9645037 11.9025833,12.0142792 L14.31654,14.0707954 L14.31654,14.0702111 Z M13.1272671,15.1393659 C13.1859696,15.1894774 13.2651084,15.2170406 13.347136,15.2159438 C13.4291637,15.2148471 13.5073017,15.185181 13.5642247,15.1335235 L13.5802598,15.120086 C13.6375671,15.0687544 13.6690882,14.9995527 13.6678339,14.9278247 C13.6665797,14.8560968 13.6326537,14.7877701 13.5735785,14.7379947 L11.1589537,12.6814785 C11.1002794,12.6315472 11.0212853,12.6040978 10.9394218,12.6051941 C10.8575583,12.6062903 10.7795625,12.635842 10.7226642,12.6873209 L10.7066291,12.7013426 C10.6493218,12.7526741 10.6178007,12.8218759 10.619055,12.8936038 C10.6203092,12.9653317 10.6542351,13.0336585 10.7133104,13.0834339 L13.1279352,15.1399501 L13.1272671,15.1393659 Z M9.52203314,14.1525886 L11.9359898,16.2091048 C11.9946923,16.2592163 12.0738311,16.2867795 12.1558587,16.2856828 C12.2378864,16.284586 12.3160244,16.2549199 12.3729474,16.2032624 L12.3883144,16.1892407 C12.4456217,16.1379092 12.4771428,16.0687074 12.4758885,15.9969795 C12.4746343,15.9252516 12.4407083,15.8569248 12.3816331,15.8071494 L9.96767639,13.7506332 C9.9089739,13.7005217 9.82983512,13.6729585 9.74780748,13.6740552 C9.66577984,13.675152 9.58764177,13.7048181 9.53071883,13.7564756 L9.51535183,13.7704973 C9.3970875,13.8778135 9.40007187,14.0484843 9.52203314,14.1525886 L9.52203314,14.1525886 Z" id="形状" fill="#FFFFFF" fill-rule="nonzero"></path>
                        <path d="M12.8214286,6.10714286 L6.71428571,12.8928571" id="路径" fill="#FFFFFF" fill-rule="nonzero"></path>
                    </g>
                </g>
            </g>
        </g>
    </g>
</svg>